<?xml version="1.0" encoding="UTF-8" standalone="no"?>
<svg
   xmlns:dc="http://purl.org/dc/elements/1.1/"
   xmlns:cc="http://creativecommons.org/ns#"
   xmlns:rdf="http://www.w3.org/1999/02/22-rdf-syntax-ns#"
   xmlns:svg="http://www.w3.org/2000/svg"
   xmlns="http://www.w3.org/2000/svg"
   xmlns:sodipodi="http://sodipodi.sourceforge.net/DTD/sodipodi-0.dtd"
   xmlns:inkscape="http://www.inkscape.org/namespaces/inkscape"
   width="655"
   height="233"
   viewBox="0 0 655 233"
   id="svg3336"
   version="1.1"
   inkscape:version="0.91 r13725"
   sodipodi:docname="kt_logo.svg">
  <sodipodi:namedview
     pagecolor="#ffffff"
     bordercolor="#666666"
     borderopacity="1"
     objecttolerance="10"
     gridtolerance="10"
     guidetolerance="10"
     inkscape:pageopacity="0"
     inkscape:pageshadow="2"
     inkscape:window-width="1920"
     inkscape:window-height="1017"
     id="namedview3348"
     showgrid="false"
     inkscape:zoom="1.3473282"
     inkscape:cx="275.24598"
     inkscape:cy="115.06421"
     inkscape:window-x="-8"
     inkscape:window-y="-8"
     inkscape:window-maximized="1"
     inkscape:current-layer="layer1" />
  <defs
     id="defs3338" />
  <metadata
     id="metadata3341">
    <rdf:RDF>
      <cc:Work
         rdf:about="">
        <dc:format>image/svg+xml</dc:format>
        <dc:type
           rdf:resource="http://purl.org/dc/dcmitype/StillImage" />
        <dc:title />
      </cc:Work>
    </rdf:RDF>
  </metadata>
  <g
     inkscape:label="Layer 1"
     inkscape:groupmode="layer"
     id="layer1">
    <g
       style="font-style:normal;font-variant:normal;font-weight:900;font-stretch:normal;font-size:120px;line-height:125%;font-family:Arial;-inkscape-font-specification:'Arial Heavy';letter-spacing:0px;word-spacing:0px;fill:#000000;fill-opacity:1;stroke:none;stroke-width:1px;stroke-linecap:butt;stroke-linejoin:miter;stroke-opacity:1"
       id="text3346">
      <path
         d="m 38.90625,40.101562 26.542969,0 0,32.460938 27.832031,-32.460938 35.27344,0 L 97.265625,72.503906 129.96094,126 97.265625,126 79.160156,90.667969 65.449219,105.02344 l 0,20.97656 -26.542969,0 0,-85.898438 z"
         style="font-style:normal;font-variant:normal;font-weight:900;font-stretch:normal;font-family:Arial;-inkscape-font-specification:'Arial Heavy'"
         id="path3355" />
      <path
         d="m 139.04297,40.101562 24.78515,0 32.34375,47.519532 0,-47.519532 25.01954,0 0,85.898438 -25.01954,0 -32.16796,-47.167969 0,47.167969 -24.96094,0 0,-85.898438 z"
         style="font-style:normal;font-variant:normal;font-weight:900;font-stretch:normal;font-family:Arial;-inkscape-font-specification:'Arial Heavy'"
         id="path3357" />
      <path
         d="m 240,40.101562 26.60156,0 0,85.898438 L 240,126 240,40.101562 Z"
         style="font-style:normal;font-variant:normal;font-weight:900;font-stretch:normal;font-family:Arial;-inkscape-font-specification:'Arial Heavy'"
         id="path3359" />
      <path
         d="m 285.70312,40.101562 65.625,0 0,18.457032 -38.96484,0 0,15 33.28125,0 0,17.34375 -33.28125,0 0,35.097656 -26.66016,0 0,-85.898438 z"
         style="font-style:normal;font-variant:normal;font-weight:900;font-stretch:normal;font-family:Arial;-inkscape-font-specification:'Arial Heavy'"
         id="path3361" />
      <path
         d="m 365.85937,40.101562 65.625,0 0,18.457032 -38.96484,0 0,15 33.28125,0 0,17.34375 -33.28125,0 0,35.097656 -26.66016,0 0,-85.898438 z"
         style="font-style:normal;font-variant:normal;font-weight:900;font-stretch:normal;font-family:Arial;-inkscape-font-specification:'Arial Heavy'"
         id="path3363" />
      <path
         d="m 445.83984,40.101562 71.13282,0 0,18.339844 -44.53125,0 0,13.652344 41.30859,0 0,17.519531 -41.30859,0 0,16.933599 45.82031,0 0,19.45312 -72.42188,0 0,-85.898438 z"
         style="font-style:normal;font-variant:normal;font-weight:900;font-stretch:normal;font-family:Arial;-inkscape-font-specification:'Arial Heavy'"
         id="path3365" />
      <path
         d="m 532.79297,40.101562 24.78515,0 32.34375,47.519532 0,-47.519532 25.01954,0 0,85.898438 -25.01954,0 -32.16796,-47.167969 0,47.167969 -24.96094,0 0,-85.898438 z"
         style="font-style:normal;font-variant:normal;font-weight:900;font-stretch:normal;font-family:Arial;-inkscape-font-specification:'Arial Heavy'"
         id="path3367" />
    </g>
    <g
       style="font-style:normal;font-variant:normal;font-weight:900;font-stretch:normal;font-size:65.5px;line-height:125%;font-family:Arial;-inkscape-font-specification:'Arial Heavy';letter-spacing:0px;word-spacing:0px;fill:#000000;fill-opacity:1;stroke:none;stroke-width:1px;stroke-linecap:butt;stroke-linejoin:miter;stroke-opacity:1"
       id="text3354">
      <path
         d="m 37.503174,147.11377 44.039795,0 0,11.57764 -14.775879,0 0,35.30859 -14.488037,0 0,-35.30859 -14.775879,0 0,-11.57764 z"
         style=""
         id="path3370" />
      <path
         d="m 88.099365,147.11377 38.826665,0 0,10.0105 -24.30665,0 0,7.4519 22.54761,0 0,9.56275 -22.54761,0 0,9.24292 25.01026,0 0,10.61816 -39.530275,0 0,-46.88623 z"
         style=""
         id="path3372" />
      <path
         d="m 166.68018,174.84253 12.69702,3.83789 q -1.2793,5.34106 -4.02979,8.9231 -2.75049,3.58203 -6.84424,5.40502 -4.06176,1.823 -10.3623,1.823 -7.6438,0 -12.50513,-2.20678 -4.82934,-2.23877 -8.34741,-7.8357 -3.51807,-5.59692 -3.51807,-14.32812 0,-11.6416 6.17261,-17.87818 6.20459,-6.26855 17.52637,-6.26855 8.85913,0 13.91235,3.58203 5.08521,3.58203 7.54785,11.00195 l -12.79297,2.84644 q -0.67163,-2.14282 -1.40722,-3.13428 -1.21533,-1.66308 -2.97437,-2.55859 -1.75903,-0.89551 -3.93384,-0.89551 -4.92529,0 -7.54785,3.96582 -1.98291,2.94238 -1.98291,9.24292 0,7.80371 2.3667,10.71411 2.3667,2.87842 6.65235,2.87842 4.15771,0 6.26855,-2.33472 2.14282,-2.33471 3.1023,-6.78027 z"
         style=""
         id="path3374" />
      <path
         d="m 186.44531,147.11377 14.48804,0 0,16.40698 15.8313,0 0,-16.40698 14.552,0 0,46.88623 -14.552,0 0,-18.96558 -15.8313,0 0,18.96558 -14.48804,0 0,-46.88623 z"
         style=""
         id="path3376" />
      <path
         d="m 241.10327,147.11377 13.52857,0 17.65429,25.93774 0,-25.93774 13.6565,0 0,46.88623 -13.6565,0 -17.55835,-25.74585 0,25.74585 -13.62451,0 0,-46.88623 z"
         style=""
         id="path3378" />
      <path
         d="m 293.8103,170.58887 q 0,-11.48169 6.39649,-17.87818 6.39648,-6.39648 17.81421,-6.39648 11.70556,0 18.03808,6.30054 6.33252,6.26855 6.33252,17.59033 0,8.21948 -2.78247,13.49658 -2.75049,5.24512 -7.9956,8.1875 -5.21314,2.9104 -13.01685,2.9104 -7.93164,0 -13.14478,-2.52661 -5.18115,-2.52661 -8.41137,-7.99561 -3.23023,-5.46899 -3.23023,-13.68847 z m 14.48804,0.064 q 0,7.1001 2.62256,10.20239 2.65454,3.1023 7.19604,3.1023 4.66944,0 7.22803,-3.03833 2.55859,-3.03833 2.55859,-10.90601 0,-6.62036 -2.68652,-9.65869 -2.65454,-3.07031 -7.22803,-3.07031 -4.38159,0 -7.03613,3.10229 -2.65454,3.1023 -2.65454,10.26636 z"
         style=""
         id="path3380" />
      <path
         d="m 350.25928,147.11377 14.48803,0 0,35.34058 22.61158,0 0,11.54565 -37.09961,0 0,-46.88623 z"
         style=""
         id="path3382" />
      <path
         d="m 391.03687,170.58887 q 0,-11.48169 6.39648,-17.87818 6.39648,-6.39648 17.81421,-6.39648 11.70556,0 18.03808,6.30054 6.33252,6.26855 6.33252,17.59033 0,8.21948 -2.78247,13.49658 -2.75048,5.24512 -7.9956,8.1875 -5.21314,2.9104 -13.01685,2.9104 -7.93164,0 -13.14477,-2.52661 -5.18116,-2.52661 -8.41138,-7.99561 -3.23022,-5.46899 -3.23022,-13.68847 z m 14.48803,0.064 q 0,7.1001 2.62256,10.20239 2.65454,3.1023 7.19605,3.1023 4.66943,0 7.22802,-3.03833 2.5586,-3.03833 2.5586,-10.90601 0,-6.62036 -2.68653,-9.65869 -2.65454,-3.07031 -7.22802,-3.07031 -4.3816,0 -7.03614,3.10229 -2.65454,3.1023 -2.65454,10.26636 z"
         style=""
         id="path3384" />
      <path
         d="m 471.05688,177.01733 0,-9.75463 22.3877,0 0,19.98901 q -6.42847,4.38159 -11.38574,5.98071 -4.9253,1.56714 -11.70557,1.56714 -8.34741,0 -13.62451,-2.84644 -5.24512,-2.84643 -8.15552,-8.47534 -2.87842,-5.6289 -2.87842,-12.9209 0,-7.67578 3.16626,-13.33667 3.16626,-5.69287 9.27491,-8.63525 4.76538,-2.27075 12.82495,-2.27075 7.77173,0 11.60962,1.40723 3.86987,1.40722 6.39648,4.38159 2.55859,2.94238 3.83789,7.48388 l -13.97632,2.49463 q -0.86352,-2.65454 -2.94238,-4.06176 -2.04687,-1.40723 -5.24512,-1.40723 -4.76538,0 -7.61181,3.32617 -2.81446,3.29419 -2.81446,10.45825 0,7.61182 2.84644,10.87403 2.87842,3.2622 7.9956,3.2622 2.43067,0 4.63746,-0.70361 2.20678,-0.70361 5.05322,-2.39868 l 0,-4.41358 -9.69068,0 z"
         style=""
         id="path3386" />
      <path
         d="m 502.6875,147.11377 14.52002,0 0,46.88623 -14.52002,0 0,-46.88623 z"
         style=""
         id="path3388" />
      <path
         d="m 527.53784,147.11377 38.82666,0 0,10.0105 -24.30664,0 0,7.4519 22.54761,0 0,9.56275 -22.54761,0 0,9.24292 25.01026,0 0,10.61816 -39.53028,0 0,-46.88623 z"
         style=""
         id="path3390" />
      <path
         d="m 572.3772,178.48853 13.78442,-0.86353 q 0.44775,3.35815 1.823,5.11719 2.23877,2.84643 6.39648,2.84643 3.1023,0 4.76538,-1.43921 1.69507,-1.47119 1.69507,-3.39013 0,-1.823 -1.59912,-3.26221 -1.59912,-1.43921 -7.41992,-2.71851 -9.53076,-2.14282 -13.59253,-5.69287 -4.09375,-3.55005 -4.09375,-9.05102 0,-3.61402 2.07886,-6.81226 2.11084,-3.23022 6.30053,-5.05322 4.22168,-1.85498 11.54566,-1.85498 8.98706,0 13.68848,3.35815 4.73339,3.32618 5.6289,10.61817 l -13.65649,0.79956 q -0.5437,-3.16626 -2.30274,-4.60547 -1.72705,-1.43921 -4.79736,-1.43921 -2.52661,0 -3.80591,1.0874 -1.27929,1.05542 -1.27929,2.59058 0,1.11938 1.05542,2.01489 1.02343,0.92749 4.86132,1.72705 9.49878,2.04688 13.59253,4.15772 4.12573,2.07885 5.98072,5.18115 1.88696,3.10229 1.88696,6.94018 0,4.50953 -2.49463,8.31543 -2.49463,3.80591 -6.97217,5.78882 -4.47754,1.95093 -11.28979,1.95093 -11.96143,0 -16.5669,-4.60547 -4.60547,-4.60547 -5.21313,-11.70556 z"
         style=""
         id="path3392" />
    </g>
    <path
       style=""
       d="m 0,0 20,0 0,233 -20,0 z"
       id="rect3360-5" />
    <path
       style=""
       d="M 0,0 655,0 655,20 0,20 Z"
       id="rect3379" />
    <path
       style=""
       d="m 0,213 655,0 0,20 -655,0 z"
       id="rect3379-1" />
    <path
       style=""
       d="m 635,0 20,0 0,233 -20,0 z"
       id="rect3360-5-9" />
  </g>
</svg>
