<?xml version="1.0" encoding="utf-8"?>
<!-- Generator: Adobe Illustrator 19.0.0, SVG Export Plug-In . SVG Version: 6.00 Build 0)  -->
<svg version="1.1" id="Layer_1" xmlns="http://www.w3.org/2000/svg" xmlns:xlink="http://www.w3.org/1999/xlink" x="0px" y="0px"
	 viewBox="0 0 500 57" style="enable-background:new 0 0 500 57;" xml:space="preserve">
<style type="text/css">
	.st0{fill:#E1FFEB;}
</style>
<g id="XMLID_1017_">
	<rect id="XMLID_1069_" x="341.6" y="14.5" class="st0" width="14.4" height="4.5"/>
	<g id="XMLID_1049_">
		<rect id="XMLID_1068_" x="1.9" y="0" class="st0" width="14.3" height="19"/>
		<polygon id="XMLID_1067_" class="st0" points="73.2,0 51.8,0 32.8,19 54.2,19 		"/>
		<rect id="XMLID_1066_" x="164.9" class="st0" width="14.3" height="19"/>
		<polygon id="XMLID_1065_" class="st0" points="101.2,0.1 79.9,0.1 94.2,14.3 98.9,19 120.2,19 		"/>
		<polygon id="XMLID_1057_" class="st0" points="79.8,7.1 79.8,19 91.8,19 		"/>
		<rect id="XMLID_1056_" x="144" y="0.1" class="st0" width="14.4" height="18.9"/>
		<polygon id="XMLID_1055_" class="st0" points="199.6,14.5 257.2,14.5 257.2,0.1 186.2,0.1 186.2,19 199.6,19 		"/>
		<polygon id="XMLID_1054_" class="st0" points="278.3,14.5 334.9,14.5 334.9,0.1 263.9,0.1 263.9,19 278.3,19 		"/>
		<polygon id="XMLID_1053_" class="st0" points="413.5,14.5 413.5,0.1 355.9,0.1 341.6,14.1 341.6,14.5 355.9,14.5 		"/>
		<rect id="XMLID_1052_" x="483.5" y="0.1" class="st0" width="14.4" height="18.9"/>
		<polygon id="XMLID_1051_" class="st0" points="441.1,0.1 419.7,0.1 433.6,13.8 434,14.2 438.8,19 459.9,19 		"/>
		<polygon id="XMLID_1050_" class="st0" points="419.2,7.1 419.2,19 431.2,19 		"/>
	</g>
	<g id="XMLID_1034_">
		<polygon id="XMLID_1048_" class="st0" points="3.8,57 18.1,57 32.3,42.8 32.3,42.8 27.6,38 3.8,38 		"/>
		<polygon id="XMLID_1047_" class="st0" points="35.9,39.2 53.7,57 75.1,57 56.1,38 34.7,38 		"/>
		<rect id="XMLID_1046_" x="166.8" y="38" class="st0" width="14.3" height="19"/>
		<polygon id="XMLID_1045_" class="st0" points="500,56.7 499.8,56.5 499.8,56.7 		"/>
		<polygon id="XMLID_1044_" class="st0" points="138.8,56.7 159.8,56.7 145.9,42.8 145.9,42.7 141.2,38 120,38 		"/>
		<polygon id="XMLID_1043_" class="st0" points="159.8,56.7 160.1,56.7 145.9,42.7 145.9,42.8 		"/>
		<rect id="XMLID_1042_" x="81.7" y="38" class="st0" width="14.4" height="18.7"/>
		<polygon id="XMLID_1041_" class="st0" points="160.3,49.9 160.3,38 148.3,38 		"/>
		<rect id="XMLID_1040_" x="188.1" y="38" class="st0" width="13.4" height="18.7"/>
		<rect id="XMLID_1039_" x="265.8" y="38" class="st0" width="14.4" height="18.7"/>
		<polygon id="XMLID_1038_" class="st0" points="343.5,56.7 400.7,56.7 414.9,42.3 357.8,42.3 357.8,38 343.5,38 		"/>
		<polygon id="XMLID_1037_" class="st0" points="499.8,49.9 499.8,38 487.8,38 		"/>
		<polygon id="XMLID_1036_" class="st0" points="478.6,56.7 499.8,56.7 499.8,56.5 485.4,42.6 480.8,38 459.8,38 		"/>
		<rect id="XMLID_1035_" x="421.1" y="38" class="st0" width="14.4" height="18.7"/>
	</g>
	<g id="XMLID_1018_">
		<polygon id="XMLID_1033_" class="st0" points="14.3,35.6 14.3,19 0,19 0,38 23.8,38 17.8,32.1 		"/>
		<polygon id="XMLID_1032_" class="st0" points="52.3,19 30.9,19 21.4,28.5 30.9,38 52.3,38 42.8,28.5 		"/>
		<rect id="XMLID_1031_" x="163" y="19" class="st0" width="14.3" height="19"/>
		<polygon id="XMLID_1030_" class="st0" points="97,19 116.1,38 137.4,38 118.3,19 		"/>
		<polygon id="XMLID_1029_" class="st0" points="89.9,19 77.9,19 77.9,38 92.3,38 92.3,21.4 		"/>
		<polygon id="XMLID_1028_" class="st0" points="142.1,19 142.1,35.6 144.5,38 156.5,38 156.5,19 		"/>
		<polygon id="XMLID_1027_" class="st0" points="205.4,21.2 205.4,35.6 226.7,35.6 241,21.2 		"/>
		<rect id="XMLID_1026_" x="184.3" y="19" class="st0" width="13.4" height="19"/>
		<rect id="XMLID_1025_" x="262" y="19" class="st0" width="14.4" height="19"/>
		<polygon id="XMLID_1024_" class="st0" points="283.1,21.2 283.1,35.6 304.7,35.6 318.9,21.2 		"/>
		<rect id="XMLID_1023_" x="339.7" y="19" class="st0" width="14.4" height="19"/>
		<rect id="XMLID_1022_" x="360.8" y="21.2" class="st0" width="28.8" height="14.4"/>
		<polygon id="XMLID_1021_" class="st0" points="481.9,36 484,38 496,38 496,19 481.6,19 481.6,35.6 		"/>
		<polygon id="XMLID_1020_" class="st0" points="436.9,19 456,38 477,38 458,19 		"/>
		<polygon id="XMLID_1019_" class="st0" points="429.3,19 417.3,19 417.3,38 431.7,38 431.7,21.4 		"/>
	</g>
</g>
</svg>
