<?xml version="1.0" encoding="utf-8"?>
<!-- Generator: Adobe Illustrator 19.0.0, SVG Export Plug-In . SVG Version: 6.00 Build 0)  -->
<svg version="1.1" id="Layer_1" xmlns="http://www.w3.org/2000/svg" xmlns:xlink="http://www.w3.org/1999/xlink" x="0px" y="0px"
	 viewBox="-155 379.8 300 34.2" style="enable-background:new -155 379.8 300 34.2;" xml:space="preserve">
<style type="text/css">
	.st0{fill:#F7FFF1;}
</style>
<g id="XMLID_1_">
	<polygon id="XMLID_2_" class="st0" points="-43.3,391.2 -44.4,391.2 -44.4,402.6 -42.1,402.6 -42.1,413.8 -34.1,413.8 -34.1,402.6 
		-36.4,402.6 -36.4,391.2 -35.2,391.2 -35.2,388.5 -0.7,388.5 -0.7,379.9 -43.3,379.9 	"/>
	<polygon id="XMLID_45_" class="st0" points="3.3,391.2 2.2,391.2 2.2,402.6 4.5,402.6 4.5,413.8 13.1,413.8 13.1,402.6 10.8,402.6 
		10.8,391.2 12,391.2 12,388.5 45.9,388.5 45.9,379.9 3.3,379.9 	"/>
	<polygon id="XMLID_46_" class="st0" points="-140.7,402.6 -144.3,399 -146.4,401.2 -146.4,391.2 -145.3,391.2 -145.3,379.8 
		-153.9,379.8 -153.9,391.2 -155,391.2 -155,402.6 -152.7,402.6 -152.7,414 -144.2,414 -135.6,405.5 -135.6,405.5 -138.5,402.6 	"/>
	<polygon id="XMLID_47_" class="st0" points="-123.6,402.6 -129.3,396.9 -123.6,391.2 -122.5,391.2 -111.1,379.8 -123.9,379.8 
		-135.3,391.2 -136.5,391.2 -142.2,396.9 -136.5,402.6 -134.2,402.6 -133.5,403.3 -122.8,414 -110,414 -121.4,402.6 	"/>
	<polygon id="XMLID_48_" class="st0" points="144.9,413.7 136.2,405.3 133.5,402.6 131.2,402.6 119.8,391.2 121,391.2 109.7,379.9 
		96.8,379.9 105.2,388.1 105.4,388.3 108.3,391.2 107.2,391.2 118.6,402.6 120.9,402.6 132.2,413.8 144.9,413.8 145,413.8 	"/>
	<polygon id="XMLID_49_" class="st0" points="-70.3,402.6 -72.6,402.6 -84,391.2 -82.9,391.2 -94.3,379.9 -107.1,379.9 -98.5,388.4 
		-95.6,391.2 -96.8,391.2 -85.3,402.6 -83,402.6 -71.7,413.8 -59.1,413.8 -58.9,413.8 -67.4,405.4 	"/>
	<polygon id="XMLID_50_" class="st0" points="59.7,402.6 57.4,402.6 57.4,391.2 58.6,391.2 58.6,388.5 93.1,388.5 93.1,379.9 
		58.6,379.9 49.9,388.2 49.9,388.5 49.9,391.2 48.8,391.2 48.8,402.6 51.1,402.6 51.1,413.8 85.4,413.8 94,405.2 59.7,405.2 	"/>
	<polygon id="XMLID_51_" class="st0" points="-48.6,391.2 -47.5,391.2 -47.5,379.8 -56,379.8 -56,391.2 -57.2,391.2 -57.2,402.6 
		-54.9,402.6 -54.9,414 -46.4,414 -46.4,402.6 -48.6,402.6 	"/>
	<polygon id="XMLID_52_" class="st0" points="-99.6,392.6 -101.1,391.2 -99.9,391.2 -107.1,384.1 -107.1,391.2 -108.3,391.2 
		-108.3,402.6 -106,402.6 -106,413.8 -97.4,413.8 -97.4,402.6 -99.6,402.6 	"/>
	<polygon id="XMLID_53_" class="st0" points="-61.1,391.2 -60,391.2 -60,379.9 -68.6,379.9 -68.6,391.2 -69.7,391.2 -69.7,401.2 
		-68.3,402.6 -66,402.6 -58.8,409.7 -58.8,402.6 -61.1,402.6 	"/>
	<polygon id="XMLID_54_" class="st0" points="-31.8,401.2 -19,401.2 -10.4,392.5 -31.8,392.5 	"/>
	<polygon id="XMLID_55_" class="st0" points="14.9,401.2 27.8,401.2 36.4,392.5 14.9,392.5 	"/>
	<rect id="XMLID_56_" x="61.5" y="392.5" class="st0" width="17.3" height="8.6"/>
	<polygon id="XMLID_57_" class="st0" points="135.4,402.6 137.7,402.6 144.9,409.7 144.9,402.6 142.6,402.6 142.6,391.2 
		143.7,391.2 143.7,379.9 135.1,379.9 135.1,391.2 134,391.2 134,401.2 134.2,401.4 	"/>
	<polygon id="XMLID_58_" class="st0" points="104,392.6 102.6,391.2 103.7,391.2 96.5,384.1 96.5,391.2 95.4,391.2 95.4,402.6 
		97.7,402.6 97.7,413.8 106.3,413.8 106.3,402.6 104,402.6 	"/>
</g>
</svg>
