<?xml version="1.0" encoding="utf-8"?>
<!-- Generator: Adobe Illustrator 19.0.0, SVG Export Plug-In . SVG Version: 6.00 Build 0)  -->
<svg version="1.1" id="Layer_1" xmlns="http://www.w3.org/2000/svg" xmlns:xlink="http://www.w3.org/1999/xlink" x="0px" y="0px"
	 viewBox="0 0 300 34.2" style="enable-background:new 0 0 300 34.2;" xml:space="preserve">
<style type="text/css">
	.st0{fill:#A8A8A8;}
</style>
<g id="XMLID_1_">
	<polygon id="XMLID_2_" class="st0" points="111.7,11.4 110.6,11.4 110.6,22.8 112.9,22.8 112.9,34 120.9,34 120.9,22.8 118.6,22.8 
		118.6,11.4 119.8,11.4 119.8,8.7 154.3,8.7 154.3,0.1 111.7,0.1 	"/>
	<polygon id="XMLID_45_" class="st0" points="158.3,11.4 157.2,11.4 157.2,22.8 159.5,22.8 159.5,34 168.1,34 168.1,22.8 
		165.8,22.8 165.8,11.4 167,11.4 167,8.7 200.9,8.7 200.9,0.1 158.3,0.1 	"/>
	<polygon id="XMLID_46_" class="st0" points="14.3,22.8 10.7,19.2 8.6,21.4 8.6,11.4 9.7,11.4 9.7,0 1.1,0 1.1,11.4 0,11.4 0,22.8 
		2.3,22.8 2.3,34.2 10.8,34.2 19.4,25.7 19.4,25.7 16.5,22.8 	"/>
	<polygon id="XMLID_47_" class="st0" points="31.4,22.8 25.7,17.1 31.4,11.4 32.5,11.4 43.9,0 31.1,0 19.7,11.4 18.5,11.4 
		12.8,17.1 18.5,22.8 20.8,22.8 21.5,23.5 32.2,34.2 45,34.2 33.6,22.8 	"/>
	<polygon id="XMLID_48_" class="st0" points="299.9,33.9 291.2,25.5 288.5,22.8 286.2,22.8 274.8,11.4 276,11.4 264.7,0.1 
		251.8,0.1 260.2,8.3 260.4,8.5 263.3,11.4 262.2,11.4 273.6,22.8 275.9,22.8 287.2,34 299.9,34 300,34 	"/>
	<polygon id="XMLID_49_" class="st0" points="84.7,22.8 82.4,22.8 71,11.4 72.1,11.4 60.7,0.1 47.9,0.1 56.5,8.6 59.4,11.4 
		58.2,11.4 69.7,22.8 72,22.8 83.3,34 95.9,34 96.1,34 87.6,25.6 	"/>
	<polygon id="XMLID_50_" class="st0" points="214.7,22.8 212.4,22.8 212.4,11.4 213.6,11.4 213.6,8.7 248.1,8.7 248.1,0.1 
		213.6,0.1 204.9,8.4 204.9,8.7 204.9,11.4 203.8,11.4 203.8,22.8 206.1,22.8 206.1,34 240.4,34 249,25.4 214.7,25.4 	"/>
	<polygon id="XMLID_51_" class="st0" points="106.4,11.4 107.5,11.4 107.5,0 99,0 99,11.4 97.8,11.4 97.8,22.8 100.1,22.8 
		100.1,34.2 108.6,34.2 108.6,22.8 106.4,22.8 	"/>
	<polygon id="XMLID_52_" class="st0" points="55.4,12.8 53.9,11.4 55.1,11.4 47.9,4.3 47.9,11.4 46.7,11.4 46.7,22.8 49,22.8 49,34 
		57.6,34 57.6,22.8 55.4,22.8 	"/>
	<polygon id="XMLID_53_" class="st0" points="93.9,11.4 95,11.4 95,0.1 86.4,0.1 86.4,11.4 85.3,11.4 85.3,21.4 86.7,22.8 89,22.8 
		96.2,29.9 96.2,22.8 93.9,22.8 	"/>
	<polygon id="XMLID_54_" class="st0" points="123.2,21.4 136,21.4 144.6,12.7 123.2,12.7 	"/>
	<polygon id="XMLID_55_" class="st0" points="169.9,21.4 182.8,21.4 191.4,12.7 169.9,12.7 	"/>
	<rect id="XMLID_56_" x="216.5" y="12.7" class="st0" width="17.3" height="8.6"/>
	<polygon id="XMLID_57_" class="st0" points="290.4,22.8 292.7,22.8 299.9,29.9 299.9,22.8 297.6,22.8 297.6,11.4 298.7,11.4 
		298.7,0.1 290.1,0.1 290.1,11.4 289,11.4 289,21.4 289.2,21.6 	"/>
	<polygon id="XMLID_58_" class="st0" points="259,12.8 257.6,11.4 258.7,11.4 251.5,4.3 251.5,11.4 250.4,11.4 250.4,22.8 
		252.7,22.8 252.7,34 261.3,34 261.3,22.8 259,22.8 	"/>
</g>
</svg>
