<?xml version="1.0" encoding="UTF-8" standalone="no"?>
<!DOCTYPE svg PUBLIC "-//W3C//DTD SVG 1.1//EN" "http://www.w3.org/Graphics/SVG/1.1/DTD/svg11.dtd">
<svg width="100%" height="100%" viewBox="0 0 1029 119" version="1.1" xmlns="http://www.w3.org/2000/svg" xmlns:xlink="http://www.w3.org/1999/xlink" xml:space="preserve" xmlns:serif="http://www.serif.com/" style="fill-rule:evenodd;clip-rule:evenodd;stroke-linejoin:round;stroke-miterlimit:2;">
    <g transform="matrix(1,0,0,1,-26164,-4254.94)">
        <g id="Artboard1" transform="matrix(0.911153,0,0,0.578968,2324.08,1812.92)">
            <rect x="26164.6" y="4217.89" width="1129.17" height="204.89" style="fill:none;"/>
            <clipPath id="_clip1">
                <rect x="26164.6" y="4217.89" width="1129.17" height="204.89"/>
            </clipPath>
            <g clip-path="url(#_clip1)">
                <g id="Standalone-logo" serif:id="Standalone logo" transform="matrix(1.09751,0,0,1.72721,25321.8,3104.94)">
                    <g>
                        <g transform="matrix(1.87903,0,0,1.87903,-21937.5,-3126.72)">
                            <path d="M12138.6,2069.81L12107.1,2038.37L12138.6,2006.93L12162.1,2006.93L12130.7,2038.37L12162.1,2069.81L12138.6,2069.81Z" style="fill:rgb(240,233,217);"/>
                        </g>
                        <g transform="matrix(1.87903,0,0,1.87903,-21937.5,-3126.72)">
                            <path d="M12169.5,2069.81L12169.5,2014.79L12185.2,2030.51L12185.2,2069.81L12169.5,2069.81Z" style="fill:rgb(240,233,217);"/>
                        </g>
                        <g transform="matrix(1.87903,0,0,1.87903,-21937.5,-3126.72)">
                            <path d="M12232.4,2069.81L12169.5,2006.93L12193.1,2006.93L12256,2069.81L12232.4,2069.81Z" style="fill:rgb(240,233,217);"/>
                        </g>
                        <g transform="matrix(1.87903,0,0,1.87903,-21937.5,-3126.72)">
                            <path d="M12256,2061.95L12240.2,2046.23L12240.2,2006.93L12256,2006.93L12256,2061.95Z" style="fill:rgb(240,233,217);"/>
                        </g>
                        <g transform="matrix(1.87903,0,0,1.87903,-21937.5,-3126.72)">
                            <rect x="12263.3" y="2006.93" width="15.72" height="62.88" style="fill:rgb(240,233,217);"/>
                        </g>
                        <g transform="matrix(1.87903,0,0,1.87903,-21937.5,-3126.72)">
                            <path d="M12286.4,2069.81L12286.4,2006.93L12365,2006.93L12365,2022.65L12302.1,2022.65L12302.1,2069.81L12286.4,2069.81Z" style="fill:rgb(240,233,217);"/>
                        </g>
                        <g transform="matrix(1.87903,0,0,1.87903,-21937.5,-3126.72)">
                            <path d="M12310,2046.23L12310,2030.51L12349.3,2030.51L12333.6,2046.23L12310,2046.23Z" style="fill:rgb(240,233,217);"/>
                        </g>
                        <g transform="matrix(1.87903,0,0,1.87903,-21937.5,-3126.72)">
                            <path d="M12372.4,2069.81L12372.4,2006.93L12451,2006.93L12451,2022.65L12388.1,2022.65L12388.1,2069.81L12372.4,2069.81Z" style="fill:rgb(240,233,217);"/>
                        </g>
                        <g transform="matrix(1.87903,0,0,1.87903,-21937.5,-3126.72)">
                            <path d="M12396,2046.23L12396,2030.51L12435.3,2030.51L12419.6,2046.23L12396,2046.23Z" style="fill:rgb(240,233,217);"/>
                        </g>
                        <g transform="matrix(1.87903,0,0,1.87903,-21937.5,-3126.72)">
                            <path d="M12458.4,2069.81L12458.4,2022.65L12474.1,2006.93L12537,2006.93L12537,2022.65L12474.1,2022.65L12474.1,2054.09L12537,2054.09L12521.2,2069.81L12458.4,2069.81Z" style="fill:rgb(240,233,217);"/>
                        </g>
                        <g transform="matrix(1.87903,0,0,1.87903,-21937.5,-3126.72)">
                            <rect x="12481.9" y="2030.51" width="31.44" height="15.72" style="fill:rgb(240,233,217);"/>
                        </g>
                        <g transform="matrix(1.87903,0,0,1.87903,-21937.5,-3126.72)">
                            <path d="M12544.3,2069.81L12544.3,2014.79L12560,2030.51L12560,2069.81L12544.3,2069.81Z" style="fill:rgb(240,233,217);"/>
                        </g>
                        <g transform="matrix(1.87903,0,0,1.87903,-21937.5,-3126.72)">
                            <path d="M12607.2,2069.81L12544.3,2006.93L12567.9,2006.93L12630.8,2069.81L12607.2,2069.81Z" style="fill:rgb(240,233,217);"/>
                        </g>
                        <g transform="matrix(1.87903,0,0,1.87903,-21937.5,-3126.72)">
                            <path d="M12630.8,2061.95L12615.1,2046.23L12615.1,2006.93L12630.8,2006.93L12630.8,2061.95Z" style="fill:rgb(240,233,217);"/>
                        </g>
                        <g transform="matrix(1.87903,0,0,1.87903,-21937.5,-3126.72)">
                            <path d="M12083.5,2069.81L12083.5,2006.93L12099.3,2006.93L12099.3,2046.23L12103.2,2042.3L12115,2054.09L12099.3,2069.81L12083.5,2069.81Z" style="fill:rgb(1,156,140);"/>
                        </g>
                    </g>
                </g>
            </g>
        </g>
    </g>
</svg>
